<svg xmlns="http://www.w3.org/2000/svg" viewBox="0 0 921 277" width="921" height="277">
<defs><linearGradient id="m" gradientUnits="userSpaceOnUse" x1="96" y1="104" x2="416" y2="436"><stop offset="0" stop-color="#6366F1"/><stop offset="1" stop-color="#8B5CF6"/></linearGradient>
<linearGradient id="t" gradientUnits="objectBoundingBox" x1="0" y1="0" x2="1" y2="0"><stop offset="0" stop-color="#6366F1"/><stop offset="1" stop-color="#8B5CF6"/></linearGradient></defs>
<g transform="translate(28 28) scale(0.62) translate(-84 -92)">
<path d="M168 104H344A72 72 0 0 1 416 176V280A72 72 0 0 1 344 352H250L150 436L188 352H168A72 72 0 0 1 96 280V176A72 72 0 0 1 168 104Z" fill="url(#m)"/>
<path d="M126 320V268A6 6 0 0 1 132 262H164A6 6 0 0 1 170 268V320ZM176 320V232A6 6 0 0 1 182 226H214A6 6 0 0 1 220 232V320ZM226 320V204A6 6 0 0 1 232 198H280A6 6 0 0 1 286 204V320ZM292 320V242A6 6 0 0 1 298 236H330A6 6 0 0 1 336 242V320ZM342 320V278A6 6 0 0 1 348 272H382A6 6 0 0 1 388 278V320Z" fill="#fff"/><path d="M253 158H259V204H253Z" fill="#fff"/><path d="M136 280h8v10h-8ZM152 280h8v10h-8ZM186 244h8v10h-8ZM202 244h8v10h-8ZM186 268h8v10h-8ZM202 268h8v10h-8ZM186 292h8v10h-8ZM202 292h8v10h-8ZM244 216h8v10h-8ZM260 216h8v10h-8ZM244 240h8v10h-8ZM260 240h8v10h-8ZM244 264h8v10h-8ZM260 264h8v10h-8ZM244 288h8v10h-8ZM260 288h8v10h-8ZM302 254h8v10h-8ZM318 254h8v10h-8ZM302 278h8v10h-8ZM318 278h8v10h-8ZM353 290h8v10h-8ZM369 290h8v10h-8Z" fill="url(#m)"/><path d="M228.8 162.7A30 30 0 0 1 228.8 137.3M208.9 172.0A52 52 0 0 1 208.9 128.0M283.2 137.3A30 30 0 0 1 283.2 162.7M303.1 128.0A52 52 0 0 1 303.1 172.0" fill="none" stroke="#fff" stroke-width="10" stroke-linecap="round"/><circle cx="256" cy="150" r="11" fill="#F59E0B"/>
</g>
<path d="M278.89599999999996 160.36V81.28800000000001H291.21599999999995L328.736 129.336V81.28800000000001H346.32V160.36H333.44L296.47999999999996 112.98400000000001V160.36Z M382.15999999999997 161.48000000000002Q374.65599999999995 161.48000000000002 368.77599999999995 157.78400000000002Q362.89599999999996 154.08800000000002 359.47999999999996 147.704Q356.06399999999996 141.32000000000002 356.06399999999996 133.144Q356.06399999999996 124.96800000000002 359.47999999999996 118.58400000000002Q362.89599999999996 112.20000000000002 368.77599999999995 108.50400000000002Q374.65599999999995 104.80800000000002 382.15999999999997 104.80800000000002Q387.64799999999997 104.80800000000002 392.128 106.936Q394.928 108.28000000000002 397.168 110.40800000000002V105.92800000000001H413.96799999999996V160.36H397.168V155.99200000000002Q395.03999999999996 158.008 392.128 159.352Q387.64799999999997 161.48000000000002 382.15999999999997 161.48000000000002ZM385.63199999999995 146.024Q391.12 146.024 394.48 142.38400000000001Q397.84 138.74400000000003 397.84 133.144Q397.84 129.336 396.328 126.424Q394.816 123.51200000000001 392.072 121.888Q389.328 120.26400000000001 385.74399999999997 120.26400000000001Q382.15999999999997 120.26400000000001 379.41599999999994 121.888Q376.67199999999997 123.51200000000001 375.048 126.424Q373.424 129.336 373.424 133.144Q373.424 136.84 374.99199999999996 139.752Q376.56 142.66400000000002 379.36 144.344Q382.15999999999997 146.024 385.63199999999995 146.024Z M448.576 184.776Q439.61600000000004 184.776 432.84000000000003 181.69600000000003Q426.064 178.616 422.144 173.01600000000002L432.672 162.488Q435.584 165.96 439.22400000000005 167.752Q442.86400000000003 169.544 448.016 169.544Q454.40000000000003 169.544 458.04 166.40800000000002Q461.68 163.27200000000002 461.68 157.56V154.08800000000002Q459.88800000000003 155.544 457.76 156.55200000000002Q453.28000000000003 158.68 447.79200000000003 158.68Q440.288 158.68 434.46400000000006 155.096Q428.64000000000004 151.512 425.28000000000003 145.352Q421.92 139.192 421.92 131.68800000000002Q421.92 124.072 425.28000000000003 117.968Q428.64000000000004 111.864 434.46400000000006 108.33600000000001Q440.288 104.80800000000002 447.79200000000003 104.80800000000002Q453.392 104.80800000000002 457.872 106.82400000000001Q460.112 107.94400000000002 462.016 109.51200000000001V105.92800000000001H478.81600000000003V157.11200000000002Q478.81600000000003 165.512 474.896 171.67200000000003Q470.976 177.83200000000002 464.144 181.30400000000003Q457.312 184.776 448.576 184.776ZM451.04 143.448Q454.624 143.448 457.25600000000003 141.88Q459.88800000000003 140.312 461.288 137.68Q462.688 135.048 462.688 131.688Q462.688 128.328 461.288 125.64000000000001Q459.88800000000003 122.95200000000001 457.25600000000003 121.38400000000001Q454.624 119.816 451.04 119.816Q447.56800000000004 119.816 444.88 121.38400000000001Q442.192 122.95200000000001 440.736 125.64000000000001Q439.28000000000003 128.328 439.28000000000003 131.68800000000002Q439.28000000000003 134.824 440.736 137.568Q442.192 140.312 444.824 141.88Q447.456 143.448 451.04 143.448Z M513.088 161.48000000000002Q505.58399999999995 161.48000000000002 499.70399999999995 157.78400000000002Q493.82399999999996 154.08800000000002 490.40799999999996 147.704Q486.99199999999996 141.32000000000002 486.99199999999996 133.144Q486.99199999999996 124.96800000000002 490.40799999999996 118.58400000000002Q493.82399999999996 112.20000000000002 499.70399999999995 108.50400000000002Q505.58399999999995 104.80800000000002 513.088 104.80800000000002Q518.576 104.80800000000002 523.0559999999999 106.936Q525.856 108.28000000000002 528.096 110.40800000000002V105.92800000000001H544.896V160.36H528.096V155.99200000000002Q525.968 158.008 523.0559999999999 159.352Q518.576 161.48000000000002 513.088 161.48000000000002ZM516.56 146.024Q522.048 146.024 525.408 142.38400000000001Q528.768 138.74400000000003 528.768 133.144Q528.768 129.336 527.256 126.424Q525.7439999999999 123.51200000000001 523.0 121.888Q520.256 120.26400000000001 516.672 120.26400000000001Q513.088 120.26400000000001 510.34399999999994 121.888Q507.59999999999997 123.51200000000001 505.976 126.424Q504.352 129.336 504.352 133.144Q504.352 136.84 505.91999999999996 139.752Q507.488 142.66400000000002 510.288 144.344Q513.088 146.024 516.56 146.024Z M556.432 160.36V105.92800000000001H573.568V110.072Q578.6080000000001 104.80800000000002 587.568 104.80800000000002Q591.488 104.80800000000002 594.456 105.98400000000001Q597.424 107.16000000000001 599.664 109.62400000000001L589.472 122.50400000000002Q588.352 121.27200000000002 586.672 120.60000000000002Q584.992 119.92800000000001 582.864 119.92800000000001Q578.6080000000001 119.92800000000001 576.088 122.56Q573.568 125.19200000000001 573.568 130.45600000000002V160.36Z" fill="#FFFFFF"/>
<path d="M631.8079999999999 160.36 601.3439999999999 81.28800000000001H620.1599999999999L639.536 134.71200000000002L659.136 81.28800000000001H677.728L646.9279999999999 160.36Z M697.4399999999999 161.48000000000002Q689.9359999999999 161.48000000000002 684.0559999999999 157.78400000000002Q678.1759999999999 154.08800000000002 674.76 147.704Q671.3439999999999 141.32000000000002 671.3439999999999 133.144Q671.3439999999999 124.96800000000002 674.76 118.58400000000002Q678.1759999999999 112.20000000000002 684.0559999999999 108.50400000000002Q689.9359999999999 104.80800000000002 697.4399999999999 104.80800000000002Q702.928 104.80800000000002 707.4079999999999 106.936Q710.208 108.28000000000002 712.448 110.40800000000002V105.92800000000001H729.2479999999999V160.36H712.448V155.99200000000002Q710.3199999999999 158.008 707.4079999999999 159.352Q702.928 161.48000000000002 697.4399999999999 161.48000000000002ZM700.9119999999999 146.024Q706.4 146.024 709.76 142.38400000000001Q713.1199999999999 138.74400000000003 713.1199999999999 133.144Q713.1199999999999 129.336 711.608 126.424Q710.096 123.51200000000001 707.352 121.888Q704.608 120.26400000000001 701.0239999999999 120.26400000000001Q697.4399999999999 120.26400000000001 694.6959999999999 121.888Q691.952 123.51200000000001 690.328 126.424Q688.704 129.336 688.704 133.144Q688.704 136.84 690.2719999999999 139.752Q691.8399999999999 142.66400000000002 694.6399999999999 144.344Q697.4399999999999 146.024 700.9119999999999 146.024Z M763.5199999999999 161.48000000000002Q756.0159999999998 161.48000000000002 750.1359999999999 157.78400000000002Q744.2559999999999 154.08800000000002 740.8399999999999 147.704Q737.4239999999999 141.32000000000002 737.4239999999999 133.144Q737.4239999999999 124.96800000000002 740.8399999999999 118.58400000000002Q744.2559999999999 112.20000000000002 750.1359999999999 108.50400000000002Q756.0159999999998 104.80800000000002 763.5199999999999 104.80800000000002Q769.0079999999999 104.80800000000002 773.4879999999998 106.936Q776.2879999999999 108.28000000000002 778.5279999999999 110.40800000000002V105.92800000000001H795.3279999999999V160.36H778.5279999999999V155.99200000000002Q776.3999999999999 158.008 773.4879999999998 159.352Q769.0079999999999 161.48000000000002 763.5199999999999 161.48000000000002ZM766.9919999999998 146.024Q772.4799999999999 146.024 775.8399999999999 142.38400000000001Q779.1999999999998 138.74400000000003 779.1999999999998 133.144Q779.1999999999998 129.336 777.6879999999999 126.424Q776.1759999999999 123.51200000000001 773.4319999999999 121.888Q770.6879999999999 120.26400000000001 767.1039999999998 120.26400000000001Q763.5199999999999 120.26400000000001 760.7759999999998 121.888Q758.0319999999999 123.51200000000001 756.4079999999999 126.424Q754.7839999999999 129.336 754.7839999999999 133.144Q754.7839999999999 136.84 756.3519999999999 139.752Q757.9199999999998 142.66400000000002 760.7199999999998 144.344Q763.5199999999999 146.024 766.9919999999998 146.024Z M842.8159999999999 160.36V129.336Q842.8159999999999 125.08000000000001 840.184 122.44800000000001Q837.5519999999999 119.816 833.5199999999999 119.816Q830.7199999999999 119.816 828.5919999999999 120.992Q826.4639999999999 122.168 825.232 124.352Q823.9999999999999 126.53600000000002 823.9999999999999 129.336V160.36H806.8639999999999V105.92800000000001H823.9999999999999V110.18400000000001Q825.7919999999999 108.61600000000001 828.0319999999999 107.38400000000001Q832.9599999999999 104.80800000000002 839.232 104.80800000000002Q845.28 104.80800000000002 849.9279999999999 107.66400000000002Q854.5759999999999 110.52000000000001 857.2639999999999 115.22400000000002Q859.9519999999999 119.92800000000001 859.9519999999999 125.52800000000002V160.36Z M870.3679999999999 160.36V105.92800000000001H887.5039999999999V160.36ZM878.992 98.424Q874.9599999999999 98.424 872.328 95.68Q869.6959999999999 92.936 869.6959999999999 89.016Q869.6959999999999 84.98400000000001 872.328 82.29600000000002Q874.9599999999999 79.60800000000002 878.992 79.60800000000002Q883.0239999999999 79.60800000000002 885.5999999999999 82.29600000000002Q888.1759999999999 84.98400000000001 888.1759999999999 89.016Q888.1759999999999 92.936 885.5999999999999 95.68Q883.0239999999999 98.424 878.992 98.424Z" fill="url(#t)"/>
<path d="M275.28 196.99200000000002H303.0V201.92000000000002H298.952V224.36H292.792V212.876H286.28V213.84400000000002Q286.28 215.78 285.48799999999994 216.704Q284.69599999999997 217.62800000000001 283.2 217.62800000000001Q282.09999999999997 217.62800000000001 280.95599999999996 216.99Q279.81199999999995 216.352 278.822 215.318Q277.832 214.28400000000002 277.23799999999994 213.074Q276.64399999999995 211.864 276.64399999999995 210.80800000000002Q276.64399999999995 209.532 277.34799999999996 208.74Q278.05199999999996 207.948 280.07599999999996 207.948H292.792V201.92000000000002H275.28Z M313.428 201.92000000000002V214.19600000000003Q313.428 216.132 312.658 217.078Q311.888 218.024 310.392 218.024Q309.248 218.024 308.082 217.364Q306.916 216.704 305.948 215.67000000000002Q304.97999999999996 214.63600000000002 304.364 213.44800000000004Q303.748 212.26000000000002 303.748 211.16000000000003Q303.748 209.88400000000001 304.474 209.092Q305.2 208.3 307.224 208.3L307.268 208.388V201.92000000000002H302.34V196.99200000000002H330.14799999999997V201.92000000000002H326.09999999999997V224.36H319.94V201.92000000000002Z M345.85599999999994 201.92000000000002Q345.98799999999994 202.36 346.11999999999995 202.8Q346.38399999999996 203.988 346.38399999999996 205.616Q346.38399999999996 207.86 345.438 209.57600000000002Q344.49199999999996 211.292 342.73199999999997 212.524Q341.2799999999999 213.58 339.3879999999999 214.328Q340.31199999999995 215.252 341.2799999999999 216.132Q342.73199999999997 217.45200000000003 344.3159999999999 218.75Q345.8999999999999 220.048 347.57199999999995 221.412L343.34799999999996 225.328Q339.78399999999993 222.292 337.16599999999994 219.674Q334.54799999999994 217.056 332.91999999999996 214.76800000000003Q331.8639999999999 213.36 331.40199999999993 212.216Q330.93999999999994 211.072 330.93999999999994 209.972Q330.93999999999994 208.56400000000002 331.8419999999999 207.75Q332.7439999999999 206.936 334.19599999999997 206.936Q335.7799999999999 206.936 337.09999999999997 207.816Q337.62799999999993 208.21200000000002 338.19999999999993 208.69600000000003Q338.9479999999999 208.21200000000002 339.43199999999996 207.596Q340.2679999999999 206.45200000000003 340.2679999999999 204.73600000000002Q340.2679999999999 203.50400000000002 339.9599999999999 202.36Q339.87199999999996 202.14000000000001 339.8279999999999 201.92000000000002H329.48799999999994V196.99200000000002H349.55199999999996V201.92000000000002Z M376.08399999999995 201.92000000000002H372.03599999999994V224.36H365.91999999999996V218.99200000000002Q365.25999999999993 219.34400000000002 364.5559999999999 219.65200000000002Q362.57599999999996 220.44400000000002 360.02399999999994 220.44400000000002Q357.11999999999995 220.44400000000002 354.96399999999994 219.49800000000002Q352.80799999999994 218.55200000000002 351.61999999999995 216.77Q350.43199999999996 214.988 350.43199999999996 212.39200000000002Q350.43199999999996 208.608 352.9839999999999 206.606Q355.53599999999994 204.604 359.9359999999999 204.604Q361.29999999999995 204.604 362.44399999999996 204.73600000000002Q363.58799999999997 204.86800000000002 364.5559999999999 205.08800000000002L364.07199999999995 209.88400000000001Q363.36799999999994 209.70800000000003 362.554 209.62Q361.73999999999995 209.532 360.8159999999999 209.532Q358.83599999999996 209.532 357.71399999999994 210.324Q356.5919999999999 211.116 356.5919999999999 212.568Q356.5919999999999 213.93200000000002 357.58199999999994 214.702Q358.57199999999995 215.472 360.3759999999999 215.472Q362.22399999999993 215.472 363.93999999999994 214.50400000000002Q365.1719999999999 213.84400000000002 365.91999999999996 212.788V201.92000000000002H348.89199999999994V196.99200000000002H376.08399999999995Z M385.01599999999996 201.92000000000002V224.36H378.85599999999994V201.92000000000002H375.46799999999996V196.99200000000002H389.06399999999996V201.92000000000002Z M420.392 201.92000000000002V224.36H414.23199999999997V201.92000000000002H409.48V210.06Q409.48 211.82000000000002 409.26 213.00800000000004Q409.04 214.19600000000003 408.644 215.05400000000003Q408.248 215.912 407.632 216.616Q406.576 217.848 404.838 218.464Q403.1 219.08 400.46 219.08Q397.952 219.08 396.148 218.39800000000002Q394.344 217.716 393.2 216.30800000000002Q392.276 215.20800000000003 391.81399999999996 213.62400000000002Q391.352 212.04000000000002 391.352 209.26800000000003V201.92000000000002H388.404V196.99200000000002H424.44V201.92000000000002ZM400.372 214.15200000000002Q401.956 214.15200000000002 402.616 213.228Q403.056 212.61200000000002 403.188 211.82000000000002Q403.32 211.02800000000002 403.32 209.62V201.92000000000002H397.468V209.62Q397.468 210.984 397.6 211.75400000000002Q397.73199999999997 212.524 398.04 213.096Q398.392 213.62400000000002 398.964 213.88800000000003Q399.536 214.15200000000002 400.372 214.15200000000002Z M413.792 197.3Q413.13199999999995 195.98000000000002 412.80199999999996 194.66000000000003Q412.472 193.34 412.472 192.06400000000002Q412.472 188.80800000000002 414.606 186.872Q416.73999999999995 184.936 420.61199999999997 184.936Q424.308 184.936 426.706 186.498Q429.104 188.06 430.556 190.83200000000002Q431.964 193.51600000000002 432.756 196.99200000000002H437.376V201.92000000000002H433.328V224.36H427.16799999999995V201.92000000000002H423.78V196.99200000000002H427.12399999999997Q426.332 193.56 425.056 191.75600000000003Q423.69199999999995 189.86400000000003 421.62399999999997 189.86400000000003Q420.08399999999995 189.86400000000003 419.33599999999996 190.72200000000004Q418.58799999999997 191.58 418.58799999999997 193.07600000000002Q418.58799999999997 194.17600000000002 418.93999999999994 195.23200000000003Q419.292 196.288 419.77599999999995 197.3Z" fill="#A5B4FC"/>

</svg>